<svg xmlns="http://www.w3.org/2000/svg" width="{{ .width }}" height="{{ .height }}" 
viewBox="0 0 45.22 53.1" shape-rendering="geometricPrecision" fill="none" class="feather feather-home">
<title>{{ T "home.home" }}</title>
<path d="M45.09,21.83c.29-3.76-.49-7.71-2.48-11.35-5.16-9.43-16.43-13.19-25.18-8.4-8.75,4.78-11.67,16.3-6.52,25.73c1.42,2.6,3.31,4.77,5.48,6.45C5.94,39.64,0,47.48,0,47.48c3.25,0,3.98-.22,4.54.16.56.37,2.46,5.68,6,5.45c4.15-.28,10.98-.8,13.71-2.16.64-.65-1.67-1.97-1.96-2.95-1.27-4.26,4.46-6.21,8.84-4.12c4.38,2.08,12.47,7.11,13.71-9.09.44-5.69.46-9.93.25-12.94Zm-6.17-3.89c0,.09-.07.16-.16.17l-2.41.04c-.05,0-.1.04-.11.1-.12.92-.36,1.82-.72,2.69-.02.05,0,.11.04.14l2.07,1.25c.08.04.1.14.06.22l-1.04,1.8c-.03.05-.08.08-.14.08-.03,0-.06,0-.08-.02l-2.11-1.17c0,0-.03-.01-.05-.01-.03,0-.07.02-.09.04-.57.74-1.23,1.4-1.97,1.97-.04.03-.06.09-.03.14l1.17,2.11c.04.08.02.18-.06.22l-1.8,1.04c0,0-.05.02-.08.02-.06,0-.11-.03-.14-.08l-1.25-2.06c0,0-.06-.05-.09-.05-.01,0-.03,0-.04,0-.86.36-1.77.6-2.69.72-.05,0-.1.05-.1.11l-.05,2.41c0,.09-.08.16-.16.16h-2.07c-.09,0-.17-.07-.17-.16l-.05-2.41c0-.05-.04-.1-.1-.11-.92-.12-1.83-.36-2.69-.72-.01,0-.03,0-.04,0-.04,0-.08.02-.09.05l-1.24,2.06c0,0-.08.08-.14.08-.03,0-.06,0-.08-.02l-1.8-1.04c-.08-.04-.1-.15-.06-.22l1.17-2.11c0,0,.01-.11-.03-.14-.74-.57-1.4-1.23-1.97-1.97-.02-.03-.05-.04-.09-.04-.02,0-.04,0-.05.01l-2.11,1.17c0,0-.05.02-.08.02-.06,0-.11-.03-.14-.08l-1.04-1.8c-.05-.08-.02-.18.06-.22l2.06-1.25c0,0,.07-.09.05-.14-.36-.86-.6-1.77-.72-2.69c0-.05-.05-.1-.11-.1l-2.41-.04c-.09,0-.16-.08-.16-.17v-2.08c0-.09.07-.16.16-.16l2.41-.04c.06,0,.1-.04.11-.1.12-.92.36-1.82.72-2.69.02-.05,0-.11-.05-.14l-2.06-1.24c-.08-.05-.1-.15-.06-.22l1.04-1.8c.03-.05.08-.08.14-.08.03,0,.06,0,.08.02l2.11,1.17c0,0,.03.01.05.01.03,0,.07-.01.09-.04.56-.74,1.23-1.4,1.97-1.97.04-.03.06-.09.03-.14L18.36,6.33c-.04-.08-.01-.18.06-.22l1.8-1.04c0,0,.05-.02.08-.02.06,0,.11.03.14.08L21.68,7.2c0,0,.06.05.09.05.02,0,.03,0,.04,0c.86-.36,1.76-.6,2.69-.72.05,0,.09-.05.1-.11l.05-2.41c0-.09.08-.16.17-.16h2.07c.09,0,.16.07.16.16l.05,2.41c0,.05.04.1.1.11.92.12,1.82.36,2.69.72.01,0,.03,0,.04,0c.04,0,.08-.02.09-.05l1.25-2.07c0,0,.08-.08.14-.08.03,0,.06,0,.08.02l1.8,1.04c.08.04.11.14.06.22L32.18,8.44c0,0-.01.11.03.14.74.57,1.4,1.23,1.97,1.97.02.03.05.04.09.04.02,0,.04,0,.05-.01l2.11-1.17c0,0,.05-.02.08-.02.06,0,.11.03.14.08l1.04,1.8c.04.08.02.18-.06.22l-2.06,1.24c0,0-.07.09-.04.14.36.86.6,1.77.72,2.69c0,.05.05.1.11.1l2.41.04c.09,0,.16.07.16.16v2.08h-.01ZM33.85,16.9c0,4.41-3.58,7.99-7.99,7.99s-7.99-3.58-7.99-7.99s3.58-7.99,7.99-7.99s7.99,3.58,7.99,7.99Z" fill="#fff"/>
</svg>