<svg xmlns="http://www.w3.org/2000/svg" version="1.1" xmlns:xlink="http://www.w3.org/1999/xlink" xmlns:svgjs="http://svgjs.dev/svgjs" width="1000" height="1000"><style>
    #light-icon {
      display: inline;
    }
    #dark-icon {
      display: none;
    }

    @media (prefers-color-scheme: dark) {
      #light-icon {
        display: none;
      }
      #dark-icon {
        display: inline;
      }
    }
  </style><g id="light-icon"><svg xmlns="http://www.w3.org/2000/svg" version="1.1" xmlns:xlink="http://www.w3.org/1999/xlink" xmlns:svgjs="http://svgjs.dev/svgjs" width="1000" height="1000"><g><g transform="matrix(18.832391713747647,0,0,18.832391713747647,74.1996233521657,-5.684341886080802e-14)"><svg xmlns="http://www.w3.org/2000/svg" version="1.1" xmlns:xlink="http://www.w3.org/1999/xlink" xmlns:svgjs="http://svgjs.dev/svgjs" width="45.22" height="53.1"><svg id="Layer_1" xmlns="http://www.w3.org/2000/svg" version="1.1" viewBox="0 0 45.22 53.1">
  <!-- Generator: Adobe Illustrator 29.3.1, SVG Export Plug-In . SVG Version: 2.1.0 Build 151)  -->
  <defs>
    <style>
      .st0 {
        fill: #1d1d1b;
      }
    </style>
  </defs>
  <path class="st0" d="M45.09,21.83c.29-3.76-.49-7.71-2.48-11.35C37.45,1.05,26.18-2.71,17.43,2.08c-8.75,4.78-11.67,16.3-6.52,25.73,1.42,2.6,3.31,4.77,5.48,6.45C5.94,39.64,0,47.48,0,47.48c3.25,0,3.98-.22,4.54.16.56.37,2.46,5.68,6,5.45,4.15-.28,10.98-.8,13.71-2.16.64-.65-1.67-1.97-1.96-2.95-1.27-4.26,4.46-6.21,8.84-4.12,4.38,2.08,12.47,7.11,13.71-9.09.44-5.69.46-9.93.25-12.94ZM38.92,17.94c0,.09-.07.16-.16.17l-2.41.04c-.05,0-.1.04-.11.1-.12.92-.36,1.82-.72,2.69-.02.05,0,.11.04.14l2.07,1.25c.08.04.1.14.06.22l-1.04,1.8c-.03.05-.08.08-.14.08-.03,0-.06,0-.08-.02l-2.11-1.17s-.03-.01-.05-.01c-.03,0-.07.02-.09.04-.57.74-1.23,1.4-1.97,1.97-.04.03-.06.09-.03.14l1.17,2.11c.04.08.02.18-.06.22l-1.8,1.04s-.05.02-.08.02c-.06,0-.11-.03-.14-.08l-1.25-2.06s-.06-.05-.09-.05c-.01,0-.03,0-.04,0-.86.36-1.77.6-2.69.72-.05,0-.1.05-.1.11l-.05,2.41c0,.09-.08.16-.16.16h-2.07c-.09,0-.17-.07-.17-.16l-.05-2.41c0-.05-.04-.1-.1-.11-.92-.12-1.83-.36-2.69-.72-.01,0-.03,0-.04,0-.04,0-.08.02-.09.05l-1.24,2.06s-.08.08-.14.08c-.03,0-.06,0-.08-.02l-1.8-1.04c-.08-.04-.1-.15-.06-.22l1.17-2.11s.01-.11-.03-.14c-.74-.57-1.4-1.23-1.97-1.97-.02-.03-.05-.04-.09-.04-.02,0-.04,0-.05.01l-2.11,1.17s-.05.02-.08.02c-.06,0-.11-.03-.14-.08l-1.04-1.8c-.05-.08-.02-.18.06-.22l2.06-1.25s.07-.09.05-.14c-.36-.86-.6-1.77-.72-2.69,0-.05-.05-.1-.11-.1l-2.41-.04c-.09,0-.16-.08-.16-.17v-2.08c0-.09.07-.16.16-.16l2.41-.04c.06,0,.1-.04.11-.1.12-.92.36-1.82.72-2.69.02-.05,0-.11-.05-.14l-2.06-1.24c-.08-.05-.1-.15-.06-.22l1.04-1.8c.03-.05.08-.08.14-.08.03,0,.06,0,.08.02l2.11,1.17s.03.01.05.01c.03,0,.07-.01.09-.04.56-.74,1.23-1.4,1.97-1.97.04-.03.06-.09.03-.14l-1.17-2.11c-.04-.08-.01-.18.06-.22l1.8-1.04s.05-.02.08-.02c.06,0,.11.03.14.08l1.24,2.07s.06.05.09.05c.02,0,.03,0,.04,0,.86-.36,1.76-.6,2.69-.72.05,0,.09-.05.1-.11l.05-2.41c0-.09.08-.16.17-.16h2.07c.09,0,.16.07.16.16l.05,2.41c0,.05.04.1.1.11.92.12,1.82.36,2.69.72.01,0,.03,0,.04,0,.04,0,.08-.02.09-.05l1.25-2.07s.08-.08.14-.08c.03,0,.06,0,.08.02l1.8,1.04c.08.04.11.14.06.22l-1.17,2.11s-.01.11.03.14c.74.57,1.4,1.23,1.97,1.97.02.03.05.04.09.04.02,0,.04,0,.05-.01l2.11-1.17s.05-.02.08-.02c.06,0,.11.03.14.08l1.04,1.8c.04.08.02.18-.06.22l-2.06,1.24s-.07.09-.04.14c.36.86.6,1.77.72,2.69,0,.05.05.1.11.1l2.41.04c.09,0,.16.07.16.16v2.08ZM33.85,16.9c0,4.41-3.58,7.99-7.99,7.99s-7.99-3.58-7.99-7.99,3.58-7.99,7.99-7.99,7.99,3.58,7.99,7.99Z"></path>
</svg></svg></g></g></svg></g><g id="dark-icon"><svg xmlns="http://www.w3.org/2000/svg" version="1.1" xmlns:xlink="http://www.w3.org/1999/xlink" xmlns:svgjs="http://svgjs.dev/svgjs" width="1000" height="1000"><g><g transform="matrix(18.832391713747647,0,0,18.832391713747647,74.1996233521657,-5.684341886080802e-14)"><svg xmlns="http://www.w3.org/2000/svg" version="1.1" xmlns:xlink="http://www.w3.org/1999/xlink" xmlns:svgjs="http://svgjs.dev/svgjs" width="45.22" height="53.1"><svg id="Layer_1" xmlns="http://www.w3.org/2000/svg" version="1.1" viewBox="0 0 45.22 53.1">
  <!-- Generator: Adobe Illustrator 29.3.1, SVG Export Plug-In . SVG Version: 2.1.0 Build 151)  -->
  <defs>
    <style>
      .st0 {
        fill: #fff;
      }
    </style>
  </defs>
  <path class="st0" d="M45.09,21.83c.29-3.76-.49-7.71-2.48-11.35C37.45,1.05,26.18-2.71,17.43,2.08c-8.75,4.78-11.67,16.3-6.52,25.73,1.42,2.6,3.31,4.77,5.48,6.45C5.94,39.64,0,47.48,0,47.48c3.25,0,3.98-.22,4.54.16.56.37,2.46,5.68,6,5.45,4.15-.28,10.98-.8,13.71-2.16.64-.65-1.67-1.97-1.96-2.95-1.27-4.26,4.46-6.21,8.84-4.12,4.38,2.08,12.47,7.11,13.71-9.09.44-5.69.46-9.93.25-12.94ZM38.92,17.94c0,.09-.07.16-.16.17l-2.41.04c-.05,0-.1.04-.11.1-.12.92-.36,1.82-.72,2.69-.02.05,0,.11.04.14l2.07,1.25c.08.04.1.14.06.22l-1.04,1.8c-.03.05-.08.08-.14.08-.03,0-.06,0-.08-.02l-2.11-1.17s-.03-.01-.05-.01c-.03,0-.07.02-.09.04-.57.74-1.23,1.4-1.97,1.97-.04.03-.06.09-.03.14l1.17,2.11c.04.08.02.18-.06.22l-1.8,1.04s-.05.02-.08.02c-.06,0-.11-.03-.14-.08l-1.25-2.06s-.06-.05-.09-.05c-.01,0-.03,0-.04,0-.86.36-1.77.6-2.69.72-.05,0-.1.05-.1.11l-.05,2.41c0,.09-.08.16-.16.16h-2.07c-.09,0-.17-.07-.17-.16l-.05-2.41c0-.05-.04-.1-.1-.11-.92-.12-1.83-.36-2.69-.72-.01,0-.03,0-.04,0-.04,0-.08.02-.09.05l-1.24,2.06s-.08.08-.14.08c-.03,0-.06,0-.08-.02l-1.8-1.04c-.08-.04-.1-.15-.06-.22l1.17-2.11s.01-.11-.03-.14c-.74-.57-1.4-1.23-1.97-1.97-.02-.03-.05-.04-.09-.04-.02,0-.04,0-.05.01l-2.11,1.17s-.05.02-.08.02c-.06,0-.11-.03-.14-.08l-1.04-1.8c-.05-.08-.02-.18.06-.22l2.06-1.25s.07-.09.05-.14c-.36-.86-.6-1.77-.72-2.69,0-.05-.05-.1-.11-.1l-2.41-.04c-.09,0-.16-.08-.16-.17v-2.08c0-.09.07-.16.16-.16l2.41-.04c.06,0,.1-.04.11-.1.12-.92.36-1.82.72-2.69.02-.05,0-.11-.05-.14l-2.06-1.24c-.08-.05-.1-.15-.06-.22l1.04-1.8c.03-.05.08-.08.14-.08.03,0,.06,0,.08.02l2.11,1.17s.03.01.05.01c.03,0,.07-.01.09-.04.56-.74,1.23-1.4,1.97-1.97.04-.03.06-.09.03-.14l-1.17-2.11c-.04-.08-.01-.18.06-.22l1.8-1.04s.05-.02.08-.02c.06,0,.11.03.14.08l1.24,2.07s.06.05.09.05c.02,0,.03,0,.04,0,.86-.36,1.76-.6,2.69-.72.05,0,.09-.05.1-.11l.05-2.41c0-.09.08-.16.17-.16h2.07c.09,0,.16.07.16.16l.05,2.41c0,.05.04.1.1.11.92.12,1.82.36,2.69.72.01,0,.03,0,.04,0,.04,0,.08-.02.09-.05l1.25-2.07s.08-.08.14-.08c.03,0,.06,0,.08.02l1.8,1.04c.08.04.11.14.06.22l-1.17,2.11s-.01.11.03.14c.74.57,1.4,1.23,1.97,1.97.02.03.05.04.09.04.02,0,.04,0,.05-.01l2.11-1.17s.05-.02.08-.02c.06,0,.11.03.14.08l1.04,1.8c.04.08.02.18-.06.22l-2.06,1.24s-.07.09-.04.14c.36.86.6,1.77.72,2.69,0,.05.05.1.11.1l2.41.04c.09,0,.16.07.16.16v2.08ZM33.85,16.9c0,4.41-3.58,7.99-7.99,7.99s-7.99-3.58-7.99-7.99,3.58-7.99,7.99-7.99,7.99,3.58,7.99,7.99Z"></path>
</svg></svg></g></g></svg></g></svg>